<?xml version="1.0" encoding="UTF-8" standalone="no"?>
<!DOCTYPE svg PUBLIC "-//W3C//DTD SVG 1.1//EN"
 "http://www.w3.org/Graphics/SVG/1.1/DTD/svg11.dtd">
<!-- Generated by graphviz version 2.40.1 (20161225.0304)
 -->
<!-- Title: dependency&#45;cruiser output Pages: 1 -->
<svg width="392pt" height="248pt"
 viewBox="0.00 0.00 392.42 248.00" xmlns="http://www.w3.org/2000/svg" xmlns:xlink="http://www.w3.org/1999/xlink">
<g id="graph0" class="graph" transform="scale(1 1) rotate(0) translate(4 244)">
<title>dependency&#45;cruiser output</title>
<polygon fill="#ffffff" stroke="transparent" points="-4,4 -4,-244 388.4209,-244 388.4209,4 -4,4"/>
<g id="clust1" class="cluster">
<title>cluster_src</title>
<path fill="#ffffff" stroke="#000000" stroke-width="2" d="M20,-8C20,-8 364.4209,-8 364.4209,-8 370.4209,-8 376.4209,-14 376.4209,-20 376.4209,-20 376.4209,-220 376.4209,-220 376.4209,-226 370.4209,-232 364.4209,-232 364.4209,-232 20,-232 20,-232 14,-232 8,-226 8,-220 8,-220 8,-20 8,-20 8,-14 14,-8 20,-8"/>
<text text-anchor="middle" x="192.2104" y="-220.8" font-family="Helvetica,sans-Serif" font-weight="bold" font-size="9.00" fill="#000000">src</text>
</g>
<g id="clust2" class="cluster">
<title>cluster_src/Components</title>
<path fill="#ffffff" stroke="#000000" stroke-width="2" d="M188.877,-42C188.877,-42 356.4209,-42 356.4209,-42 362.4209,-42 368.4209,-48 368.4209,-54 368.4209,-54 368.4209,-110 368.4209,-110 368.4209,-116 362.4209,-122 356.4209,-122 356.4209,-122 188.877,-122 188.877,-122 182.877,-122 176.877,-116 176.877,-110 176.877,-110 176.877,-54 176.877,-54 176.877,-48 182.877,-42 188.877,-42"/>
<text text-anchor="middle" x="272.6489" y="-110.8" font-family="Helvetica,sans-Serif" font-weight="bold" font-size="9.00" fill="#000000">Components</text>
</g>
<g id="clust3" class="cluster">
<title>cluster_src/constants</title>
<path fill="#ffffff" stroke="#000000" stroke-width="2" d="M303.1636,-130C303.1636,-130 349.1636,-130 349.1636,-130 355.1636,-130 361.1636,-136 361.1636,-142 361.1636,-142 361.1636,-169 361.1636,-169 361.1636,-175 355.1636,-181 349.1636,-181 349.1636,-181 303.1636,-181 303.1636,-181 297.1636,-181 291.1636,-175 291.1636,-169 291.1636,-169 291.1636,-142 291.1636,-142 291.1636,-136 297.1636,-130 303.1636,-130"/>
<text text-anchor="middle" x="326.1636" y="-169.8" font-family="Helvetica,sans-Serif" font-weight="bold" font-size="9.00" fill="#000000">constants</text>
</g>
<g id="clust4" class="cluster">
<title>cluster_src/utils</title>
<path fill="#ffffff" stroke="#000000" stroke-width="2" d="M205.385,-156C205.385,-156 258.3982,-156 258.3982,-156 264.3982,-156 270.3982,-162 270.3982,-168 270.3982,-168 270.3982,-195 270.3982,-195 270.3982,-201 264.3982,-207 258.3982,-207 258.3982,-207 205.385,-207 205.385,-207 199.385,-207 193.385,-201 193.385,-195 193.385,-195 193.385,-168 193.385,-168 193.385,-162 199.385,-156 205.385,-156"/>
<text text-anchor="middle" x="231.8916" y="-195.8" font-family="Helvetica,sans-Serif" font-weight="bold" font-size="9.00" fill="#000000">utils</text>
</g>
<!-- src/App.css -->
<g id="node1" class="node">
<title>src/App.css</title>
<g id="a_node1"><a xlink:href="src/App.css" xlink:title="App.css">
<path fill="#ffffcc" stroke="#000000" d="M253.2249,-33.5C253.2249,-33.5 210.5583,-33.5 210.5583,-33.5 207.7249,-33.5 204.8916,-30.6667 204.8916,-27.8333 204.8916,-27.8333 204.8916,-22.1667 204.8916,-22.1667 204.8916,-19.3333 207.7249,-16.5 210.5583,-16.5 210.5583,-16.5 253.2249,-16.5 253.2249,-16.5 256.0583,-16.5 258.8916,-19.3333 258.8916,-22.1667 258.8916,-22.1667 258.8916,-27.8333 258.8916,-27.8333 258.8916,-30.6667 256.0583,-33.5 253.2249,-33.5"/>
<text text-anchor="middle" x="231.8916" y="-22.3" font-family="Helvetica,sans-Serif" font-size="9.00" fill="#000000">App.css</text>
</a>
</g>
</g>
<!-- src/App.js -->
<g id="node2" class="node">
<title>src/App.js</title>
<g id="a_node2"><a xlink:href="src/App.js" xlink:title="App.js">
<path fill="#ffffcc" stroke="#000000" d="M149.2821,-67.5C149.2821,-67.5 106.6154,-67.5 106.6154,-67.5 103.7821,-67.5 100.9487,-64.6667 100.9487,-61.8333 100.9487,-61.8333 100.9487,-56.1667 100.9487,-56.1667 100.9487,-53.3333 103.7821,-50.5 106.6154,-50.5 106.6154,-50.5 149.2821,-50.5 149.2821,-50.5 152.1154,-50.5 154.9487,-53.3333 154.9487,-56.1667 154.9487,-56.1667 154.9487,-61.8333 154.9487,-61.8333 154.9487,-64.6667 152.1154,-67.5 149.2821,-67.5"/>
<text text-anchor="middle" x="127.9487" y="-56.3" font-family="Helvetica,sans-Serif" font-size="9.00" fill="#000000">App.js</text>
</a>
</g>
</g>
<!-- src/App.js&#45;&gt;src/App.css -->
<g id="edge1" class="edge">
<title>src/App.js&#45;&gt;src/App.css</title>
<path fill="none" stroke="#000000" stroke-width="2" stroke-opacity="0.466667" d="M147.2402,-50.3908C156.1527,-46.6015 166.942,-42.2771 176.877,-39 182.6331,-37.1013 188.7986,-35.307 194.8446,-33.6763"/>
<polygon fill="#000000" fill-opacity="0.466667" stroke="#000000" stroke-width="2" stroke-opacity="0.466667" points="196.0089,-36.9904 204.8134,-31.0972 194.2555,-30.2136 196.0089,-36.9904"/>
</g>
<!-- src/Components/MovieInformation.js -->
<g id="node5" class="node">
<title>src/Components/MovieInformation.js</title>
<g id="a_node5"><a xlink:href="src/Components/MovieInformation.js" xlink:title="MovieInformation.js">
<path fill="#ffffcc" stroke="#000000" d="M273.2542,-67.5C273.2542,-67.5 190.529,-67.5 190.529,-67.5 187.6956,-67.5 184.8623,-64.6667 184.8623,-61.8333 184.8623,-61.8333 184.8623,-56.1667 184.8623,-56.1667 184.8623,-53.3333 187.6956,-50.5 190.529,-50.5 190.529,-50.5 273.2542,-50.5 273.2542,-50.5 276.0876,-50.5 278.9209,-53.3333 278.9209,-56.1667 278.9209,-56.1667 278.9209,-61.8333 278.9209,-61.8333 278.9209,-64.6667 276.0876,-67.5 273.2542,-67.5"/>
<text text-anchor="middle" x="231.8916" y="-56.3" font-family="Helvetica,sans-Serif" font-size="9.00" fill="#000000">MovieInformation.js</text>
</a>
</g>
</g>
<!-- src/App.js&#45;&gt;src/Components/MovieInformation.js -->
<g id="edge2" class="edge">
<title>src/App.js&#45;&gt;src/Components/MovieInformation.js</title>
<path fill="none" stroke="#000000" stroke-width="2" stroke-opacity="0.466667" d="M154.9872,-59C161.1302,-59 167.8823,-59 174.756,-59"/>
<polygon fill="#000000" fill-opacity="0.466667" stroke="#000000" stroke-width="2" stroke-opacity="0.466667" points="174.8573,-62.5001 184.8572,-59 174.8572,-55.5001 174.8573,-62.5001"/>
</g>
<!-- src/logo.svg -->
<g id="node10" class="node">
<title>src/logo.svg</title>
<g id="a_node10"><a xlink:href="src/logo.svg" xlink:title="logo.svg">
<path fill="#ffffcc" stroke="#000000" d="M253.2249,-147.5C253.2249,-147.5 210.5583,-147.5 210.5583,-147.5 207.7249,-147.5 204.8916,-144.6667 204.8916,-141.8333 204.8916,-141.8333 204.8916,-136.1667 204.8916,-136.1667 204.8916,-133.3333 207.7249,-130.5 210.5583,-130.5 210.5583,-130.5 253.2249,-130.5 253.2249,-130.5 256.0583,-130.5 258.8916,-133.3333 258.8916,-136.1667 258.8916,-136.1667 258.8916,-141.8333 258.8916,-141.8333 258.8916,-144.6667 256.0583,-147.5 253.2249,-147.5"/>
<text text-anchor="middle" x="231.8916" y="-136.3" font-family="Helvetica,sans-Serif" font-size="9.00" fill="#000000">logo.svg</text>
</a>
</g>
</g>
<!-- src/App.js&#45;&gt;src/logo.svg -->
<g id="edge3" class="edge">
<title>src/App.js&#45;&gt;src/logo.svg</title>
<path fill="none" stroke="#000000" stroke-width="2" stroke-opacity="0.466667" d="M155.2054,-64.4023C160.4036,-66.593 165.3228,-69.6722 168.877,-74 183.4381,-91.7311 161.4299,-108.0351 176.877,-125 181.6471,-130.2389 188.0767,-133.6394 194.8574,-135.821"/>
<polygon fill="#000000" fill-opacity="0.466667" stroke="#000000" stroke-width="2" stroke-opacity="0.466667" points="194.3515,-139.2985 204.891,-138.2172 195.9775,-132.49 194.3515,-139.2985"/>
</g>
<!-- src/App.test.js -->
<g id="node3" class="node">
<title>src/App.test.js</title>
<g id="a_node3"><a xlink:href="src/App.test.js" xlink:title="App.test.js">
<path fill="#ffffcc" stroke="#000000" d="M68.3641,-67.5C68.3641,-67.5 21.6564,-67.5 21.6564,-67.5 18.8231,-67.5 15.9897,-64.6667 15.9897,-61.8333 15.9897,-61.8333 15.9897,-56.1667 15.9897,-56.1667 15.9897,-53.3333 18.8231,-50.5 21.6564,-50.5 21.6564,-50.5 68.3641,-50.5 68.3641,-50.5 71.1974,-50.5 74.0308,-53.3333 74.0308,-56.1667 74.0308,-56.1667 74.0308,-61.8333 74.0308,-61.8333 74.0308,-64.6667 71.1974,-67.5 68.3641,-67.5"/>
<text text-anchor="middle" x="45.0103" y="-56.3" font-family="Helvetica,sans-Serif" font-size="9.00" fill="#000000">App.test.js</text>
</a>
</g>
</g>
<!-- src/App.test.js&#45;&gt;src/App.js -->
<g id="edge4" class="edge">
<title>src/App.test.js&#45;&gt;src/App.js</title>
<path fill="none" stroke="#000000" stroke-width="2" stroke-opacity="0.466667" d="M74.4848,-59C79.7054,-59 85.2034,-59 90.6071,-59"/>
<polygon fill="#000000" fill-opacity="0.466667" stroke="#000000" stroke-width="2" stroke-opacity="0.466667" points="90.7844,-62.5001 100.7844,-59 90.7844,-55.5001 90.7844,-62.5001"/>
</g>
<!-- src/Components/MovieCard.js -->
<g id="node4" class="node">
<title>src/Components/MovieCard.js</title>
<g id="a_node4"><a xlink:href="src/Components/MovieCard.js" xlink:title="MovieCard.js">
<path fill="#ffffcc" stroke="#000000" d="M354.5133,-67.5C354.5133,-67.5 297.8139,-67.5 297.8139,-67.5 294.9806,-67.5 292.1472,-64.6667 292.1472,-61.8333 292.1472,-61.8333 292.1472,-56.1667 292.1472,-56.1667 292.1472,-53.3333 294.9806,-50.5 297.8139,-50.5 297.8139,-50.5 354.5133,-50.5 354.5133,-50.5 357.3466,-50.5 360.1799,-53.3333 360.1799,-56.1667 360.1799,-56.1667 360.1799,-61.8333 360.1799,-61.8333 360.1799,-64.6667 357.3466,-67.5 354.5133,-67.5"/>
<text text-anchor="middle" x="326.1636" y="-56.3" font-family="Helvetica,sans-Serif" font-size="9.00" fill="#000000">MovieCard.js</text>
</a>
</g>
</g>
<!-- src/Components/MovieInformation.js&#45;&gt;src/Components/MovieCard.js -->
<g id="edge6" class="edge">
<title>src/Components/MovieInformation.js&#45;&gt;src/Components/MovieCard.js</title>
<path fill="none" stroke="#000000" stroke-width="2" stroke-opacity="0.466667" d="M279.0276,-59C279.9942,-59 280.9609,-59 281.9259,-59"/>
<polygon fill="#000000" fill-opacity="0.466667" stroke="#000000" stroke-width="2" stroke-opacity="0.466667" points="282.1293,-62.5001 292.1292,-59 282.1292,-55.5001 282.1293,-62.5001"/>
</g>
<!-- src/constants/api.js -->
<g id="node7" class="node">
<title>src/constants/api.js</title>
<g id="a_node7"><a xlink:href="src/constants/api.js" xlink:title="api.js">
<path fill="#ffffcc" stroke="#000000" d="M347.4969,-155.5C347.4969,-155.5 304.8302,-155.5 304.8302,-155.5 301.9969,-155.5 299.1636,-152.6667 299.1636,-149.8333 299.1636,-149.8333 299.1636,-144.1667 299.1636,-144.1667 299.1636,-141.3333 301.9969,-138.5 304.8302,-138.5 304.8302,-138.5 347.4969,-138.5 347.4969,-138.5 350.3302,-138.5 353.1636,-141.3333 353.1636,-144.1667 353.1636,-144.1667 353.1636,-149.8333 353.1636,-149.8333 353.1636,-152.6667 350.3302,-155.5 347.4969,-155.5"/>
<text text-anchor="middle" x="326.1636" y="-144.3" font-family="Helvetica,sans-Serif" font-size="9.00" fill="#000000">api.js</text>
</a>
</g>
</g>
<!-- src/Components/MovieInformation.js&#45;&gt;src/constants/api.js -->
<g id="edge5" class="edge">
<title>src/Components/MovieInformation.js&#45;&gt;src/constants/api.js</title>
<path fill="none" stroke="#000000" stroke-width="2" stroke-opacity="0.466667" d="M270.8382,-67.6549C273.821,-69.398 276.573,-71.4899 278.9063,-74 294.7781,-91.0745 277.5663,-106.0641 291.1636,-125 293.1311,-127.74 295.5559,-130.2155 298.2037,-132.4311"/>
<polygon fill="#000000" fill-opacity="0.466667" stroke="#000000" stroke-width="2" stroke-opacity="0.466667" points="296.3845,-135.4302 306.5823,-138.3037 300.4023,-129.698 296.3845,-135.4302"/>
</g>
<!-- src/Components/SearchBar.js -->
<g id="node6" class="node">
<title>src/Components/SearchBar.js</title>
<g id="a_node6"><a xlink:href="src/Components/SearchBar.js" xlink:title="SearchBar.js">
<path fill="#ffffcc" stroke="#000000" d="M259.7542,-96.5C259.7542,-96.5 204.029,-96.5 204.029,-96.5 201.1956,-96.5 198.3623,-93.6667 198.3623,-90.8333 198.3623,-90.8333 198.3623,-85.1667 198.3623,-85.1667 198.3623,-82.3333 201.1956,-79.5 204.029,-79.5 204.029,-79.5 259.7542,-79.5 259.7542,-79.5 262.5876,-79.5 265.4209,-82.3333 265.4209,-85.1667 265.4209,-85.1667 265.4209,-90.8333 265.4209,-90.8333 265.4209,-93.6667 262.5876,-96.5 259.7542,-96.5"/>
<text text-anchor="middle" x="231.8916" y="-85.3" font-family="Helvetica,sans-Serif" font-size="9.00" fill="#000000">SearchBar.js</text>
</a>
</g>
</g>
<!-- src/Components/SearchBar.js&#45;&gt;src/constants/api.js -->
<g id="edge7" class="edge">
<title>src/Components/SearchBar.js&#45;&gt;src/constants/api.js</title>
<path fill="none" stroke="#000000" stroke-width="2" stroke-opacity="0.466667" d="M265.4447,-93.5448C270.2943,-95.3683 274.9687,-97.7885 278.9063,-101 288.1878,-108.5702 283.0794,-116.1625 291.1636,-125 293.7371,-127.8133 296.7497,-130.4064 299.9084,-132.7495"/>
<polygon fill="#000000" fill-opacity="0.466667" stroke="#000000" stroke-width="2" stroke-opacity="0.466667" points="298.1328,-135.7709 308.4095,-138.3476 301.9827,-129.9247 298.1328,-135.7709"/>
</g>
<!-- src/index.css -->
<g id="node8" class="node">
<title>src/index.css</title>
<g id="a_node8"><a xlink:href="src/index.css" xlink:title="index.css">
<path fill="#ffffcc" stroke="#000000" d="M149.2821,-96.5C149.2821,-96.5 106.6154,-96.5 106.6154,-96.5 103.7821,-96.5 100.9487,-93.6667 100.9487,-90.8333 100.9487,-90.8333 100.9487,-85.1667 100.9487,-85.1667 100.9487,-82.3333 103.7821,-79.5 106.6154,-79.5 106.6154,-79.5 149.2821,-79.5 149.2821,-79.5 152.1154,-79.5 154.9487,-82.3333 154.9487,-85.1667 154.9487,-85.1667 154.9487,-90.8333 154.9487,-90.8333 154.9487,-93.6667 152.1154,-96.5 149.2821,-96.5"/>
<text text-anchor="middle" x="127.9487" y="-85.3" font-family="Helvetica,sans-Serif" font-size="9.00" fill="#000000">index.css</text>
</a>
</g>
</g>
<!-- src/index.js -->
<g id="node9" class="node">
<title>src/index.js</title>
<g id="a_node9"><a xlink:href="src/index.js" xlink:title="index.js">
<path fill="#ffffcc" stroke="#000000" d="M66.3436,-96.5C66.3436,-96.5 23.6769,-96.5 23.6769,-96.5 20.8436,-96.5 18.0103,-93.6667 18.0103,-90.8333 18.0103,-90.8333 18.0103,-85.1667 18.0103,-85.1667 18.0103,-82.3333 20.8436,-79.5 23.6769,-79.5 23.6769,-79.5 66.3436,-79.5 66.3436,-79.5 69.1769,-79.5 72.0103,-82.3333 72.0103,-85.1667 72.0103,-85.1667 72.0103,-90.8333 72.0103,-90.8333 72.0103,-93.6667 69.1769,-96.5 66.3436,-96.5"/>
<text text-anchor="middle" x="45.0103" y="-85.3" font-family="Helvetica,sans-Serif" font-size="9.00" fill="#000000">index.js</text>
</a>
</g>
</g>
<!-- src/index.js&#45;&gt;src/App.js -->
<g id="edge8" class="edge">
<title>src/index.js&#45;&gt;src/App.js</title>
<path fill="none" stroke="#000000" stroke-width="2" stroke-opacity="0.466667" d="M69.4459,-79.4559C77.0554,-76.7952 85.5909,-73.8107 93.7403,-70.9612"/>
<polygon fill="#000000" fill-opacity="0.466667" stroke="#000000" stroke-width="2" stroke-opacity="0.466667" points="95.1167,-74.1878 103.4011,-67.5832 92.8063,-67.5801 95.1167,-74.1878"/>
</g>
<!-- src/index.js&#45;&gt;src/index.css -->
<g id="edge9" class="edge">
<title>src/index.js&#45;&gt;src/index.css</title>
<path fill="none" stroke="#000000" stroke-width="2" stroke-opacity="0.466667" d="M72.1674,-88C78.0388,-88 84.3465,-88 90.5327,-88"/>
<polygon fill="#000000" fill-opacity="0.466667" stroke="#000000" stroke-width="2" stroke-opacity="0.466667" points="90.7306,-91.5001 100.7306,-88 90.7305,-84.5001 90.7306,-91.5001"/>
</g>
<!-- src/serviceWorker.js -->
<g id="node11" class="node">
<title>src/serviceWorker.js</title>
<g id="a_node11"><a xlink:href="src/serviceWorker.js" xlink:title="serviceWorker.js">
<path fill="#ffffcc" stroke="#000000" d="M163.1386,-125.5C163.1386,-125.5 92.7588,-125.5 92.7588,-125.5 89.9255,-125.5 87.0922,-122.6667 87.0922,-119.8333 87.0922,-119.8333 87.0922,-114.1667 87.0922,-114.1667 87.0922,-111.3333 89.9255,-108.5 92.7588,-108.5 92.7588,-108.5 163.1386,-108.5 163.1386,-108.5 165.972,-108.5 168.8053,-111.3333 168.8053,-114.1667 168.8053,-114.1667 168.8053,-119.8333 168.8053,-119.8333 168.8053,-122.6667 165.972,-125.5 163.1386,-125.5"/>
<text text-anchor="middle" x="127.9487" y="-114.3" font-family="Helvetica,sans-Serif" font-size="9.00" fill="#000000">serviceWorker.js</text>
</a>
</g>
</g>
<!-- src/index.js&#45;&gt;src/serviceWorker.js -->
<g id="edge10" class="edge">
<title>src/index.js&#45;&gt;src/serviceWorker.js</title>
<path fill="none" stroke="#000000" stroke-width="2" stroke-opacity="0.466667" d="M68.9839,-96.6222C74.8762,-98.7242 81.172,-100.9557 87.0205,-103 88.9346,-103.6691 90.9002,-104.3527 92.8852,-105.0404"/>
<polygon fill="#000000" fill-opacity="0.466667" stroke="#000000" stroke-width="2" stroke-opacity="0.466667" points="92.2277,-108.5158 102.8224,-108.4644 94.5081,-101.8976 92.2277,-108.5158"/>
</g>
<!-- src/utils/TmdbApi.js -->
<g id="node12" class="node">
<title>src/utils/TmdbApi.js</title>
<g id="a_node12"><a xlink:href="src/utils/TmdbApi.js" xlink:title="TmdbApi.js">
<path fill="#ffffcc" stroke="#000000" d="M256.7381,-181.5C256.7381,-181.5 207.0451,-181.5 207.0451,-181.5 204.2117,-181.5 201.3784,-178.6667 201.3784,-175.8333 201.3784,-175.8333 201.3784,-170.1667 201.3784,-170.1667 201.3784,-167.3333 204.2117,-164.5 207.0451,-164.5 207.0451,-164.5 256.7381,-164.5 256.7381,-164.5 259.5715,-164.5 262.4048,-167.3333 262.4048,-170.1667 262.4048,-170.1667 262.4048,-175.8333 262.4048,-175.8333 262.4048,-178.6667 259.5715,-181.5 256.7381,-181.5"/>
<text text-anchor="middle" x="231.8916" y="-170.3" font-family="Helvetica,sans-Serif" font-size="9.00" fill="#000000">TmdbApi.js</text>
</a>
</g>
</g>
<!-- src/utils/TmdbApi.js&#45;&gt;src/constants/api.js -->
<g id="edge11" class="edge">
<title>src/utils/TmdbApi.js&#45;&gt;src/constants/api.js</title>
<path fill="none" stroke="#000000" stroke-width="2" stroke-opacity="0.466667" d="M262.5373,-165.3578C267.9985,-163.9448 273.6275,-162.455 278.9063,-161 282.224,-160.0855 285.6657,-159.1128 289.1104,-158.1228"/>
<polygon fill="#000000" fill-opacity="0.466667" stroke="#000000" stroke-width="2" stroke-opacity="0.466667" points="290.105,-161.4786 298.7265,-155.3206 288.1466,-154.7581 290.105,-161.4786"/>
</g>
</g>
</svg>
